<svg width="22" height="21" viewBox="0 0 22 21" fill="none" xmlns="http://www.w3.org/2000/svg">
<path d="M7.45557 5.27934C7.38691 5.35303 7.30411 5.41213 7.21211 5.45312C7.12011 5.49411 7.02079 5.51616 6.92009 5.51793C6.81939 5.51971 6.71936 5.50118 6.62597 5.46346C6.53258 5.42574 6.44775 5.3696 6.37653 5.29838C6.30531 5.22716 6.24917 5.14233 6.21145 5.04894C6.17372 4.95555 6.1552 4.85552 6.15698 4.75482C6.15875 4.65412 6.1808 4.5548 6.22179 4.4628C6.26278 4.3708 6.32188 4.288 6.39557 4.21934L10.3956 0.21934C10.5362 0.0788894 10.7268 0 10.9256 0C11.1243 0 11.3149 0.0788894 11.4556 0.21934L15.4556 4.21934C15.5293 4.288 15.5884 4.3708 15.6293 4.4628C15.6703 4.5548 15.6924 4.65412 15.6942 4.75482C15.6959 4.85552 15.6774 4.95555 15.6397 5.04894C15.602 5.14233 15.5458 5.22716 15.4746 5.29838C15.4034 5.3696 15.3186 5.42574 15.2252 5.46346C15.1318 5.50118 15.0317 5.51971 14.931 5.51793C14.8303 5.51616 14.731 5.49411 14.639 5.45312C14.547 5.41213 14.4642 5.35303 14.3956 5.27934L11.6756 2.55934V12.2493C11.6756 12.4483 11.5966 12.639 11.4559 12.7797C11.3152 12.9203 11.1245 12.9993 10.9256 12.9993C10.7267 12.9993 10.5359 12.9203 10.3952 12.7797C10.2546 12.639 10.1756 12.4483 10.1756 12.2493V2.55934L7.45557 5.27934Z" fill="#EEE5E7"/>
<path d="M18.9136 13.1047C18.8841 13.0084 18.8743 12.9071 18.8848 12.8069C18.8953 12.7068 18.9259 12.6097 18.9747 12.5216C19.0235 12.4335 19.0895 12.3562 19.1689 12.2942C19.2483 12.2321 19.3393 12.1867 19.4366 12.1607C19.5339 12.1346 19.6354 12.1284 19.7351 12.1424C19.8349 12.1565 19.9308 12.1904 20.0171 12.2423C20.1034 12.2942 20.1784 12.363 20.2376 12.4445C20.2968 12.526 20.3389 12.6185 20.3615 12.7167L21.8256 18.1808C21.877 18.3728 21.85 18.5773 21.7506 18.7495C21.6512 18.9216 21.4876 19.0472 21.2956 19.0988L15.8315 20.5629C15.7352 20.5924 15.634 20.6021 15.5338 20.5916C15.4336 20.5811 15.3366 20.5506 15.2485 20.5018C15.1604 20.453 15.083 20.3869 15.021 20.3075C14.959 20.2282 14.9136 20.1371 14.8875 20.0398C14.8615 19.9426 14.8553 19.841 14.8693 19.7413C14.8833 19.6415 14.9173 19.5457 14.9692 19.4593C15.0211 19.373 15.0898 19.298 15.1713 19.2388C15.2528 19.1797 15.3454 19.1375 15.4436 19.1149L19.1591 18.1193L10.7674 13.2743C10.5951 13.1748 10.4694 13.011 10.4179 12.8189C10.3664 12.6268 10.3934 12.422 10.4928 12.2498C10.5923 12.0775 10.7561 11.9518 10.9482 11.9003C11.1404 11.8489 11.3451 11.8758 11.5174 11.9753L19.9091 16.8203L18.9136 13.1047Z" fill="#EEE5E7"/>
<path d="M6.40755 19.1149C6.5057 19.1375 6.59828 19.1797 6.67978 19.2388C6.76128 19.298 6.83003 19.373 6.88192 19.4593C6.93381 19.5457 6.96778 19.6415 6.98181 19.7413C6.99583 19.841 6.98963 19.9426 6.96356 20.0398C6.93749 20.1371 6.89209 20.2282 6.83008 20.3075C6.76806 20.3869 6.6907 20.4529 6.6026 20.5018C6.5145 20.5506 6.41747 20.5811 6.3173 20.5916C6.21713 20.6021 6.11587 20.5924 6.01957 20.5629L0.555463 19.0988C0.363517 19.0472 0.199884 18.9216 0.100509 18.7495C0.00113384 18.5773 -0.0258578 18.3728 0.0254632 18.1808L1.48956 12.7167C1.51218 12.6185 1.55434 12.526 1.61352 12.4445C1.6727 12.363 1.74768 12.2942 1.83401 12.2423C1.92033 12.1904 2.01622 12.1565 2.11596 12.1424C2.21569 12.1284 2.31723 12.1346 2.41452 12.1607C2.51181 12.1867 2.60285 12.2321 2.68221 12.2942C2.76157 12.3562 2.82763 12.4335 2.87644 12.5216C2.92525 12.6097 2.95582 12.7068 2.96632 12.8069C2.97682 12.9071 2.96703 13.0084 2.93755 13.1047L1.94196 16.8203L10.3337 11.9753C10.506 11.8758 10.7107 11.8489 10.9029 11.9003C11.095 11.9518 11.2588 12.0775 11.3583 12.2498C11.4577 12.422 11.4847 12.6268 11.4332 12.8189C11.3817 13.011 11.256 13.1748 11.0837 13.2743L2.69196 18.1193L6.40755 19.1149Z" fill="#EEE5E7"/>
</svg>
